<?xml version="1.0" standalone="no"?>
<!DOCTYPE svg PUBLIC "-//W3C//DTD SVG 20010904//EN"
 "http://www.w3.org/TR/2001/REC-SVG-20010904/DTD/svg10.dtd">
<svg version="1.0" xmlns="http://www.w3.org/2000/svg"
 width="500.000000pt" height="500.000000pt" viewBox="0 0 500.000000 500.000000"
 preserveAspectRatio="xMidYMid meet">

<g transform="translate(0.000000,500.000000) scale(0.100000,-0.100000)"
fill="#000000" stroke="none">
<path d="M4635 4940 c-271 -48 -505 -102 -531 -122 -33 -27 -34 -92 -1 -109
31 -17 68 -13 247 25 85 19 229 46 319 61 136 23 165 25 172 14 5 -8 9 -17 9
-21 0 -4 -69 -69 -152 -144 -185 -166 -506 -488 -644 -644 -175 -200 -426
-520 -494 -632 -34 -57 -20 -123 36 -167 48 -38 90 -29 282 60 218 100 458
197 467 187 2 -2 -35 -43 -83 -93 -273 -287 -788 -891 -1013 -1190 -164 -217
-279 -482 -354 -815 -44 -194 -63 -254 -120 -377 -76 -162 -157 -275 -291
-405 -163 -157 -312 -247 -524 -317 -216 -71 -487 -87 -710 -42 -201 41 -377
111 -523 208 -83 55 -232 195 -294 276 -53 69 -84 85 -120 62 -36 -24 -46 -60
-28 -99 30 -64 181 -221 291 -304 446 -337 1060 -410 1564 -188 319 141 588
396 740 701 70 142 102 236 149 440 72 311 136 474 261 665 86 130 152 214
463 589 285 342 438 516 613 696 137 140 144 150 144 205 0 83 -57 140 -140
140 -45 0 -239 -67 -395 -137 -161 -73 -235 -102 -235 -95 0 12 157 220 258
342 250 301 511 572 788 817 173 152 187 168 203 229 22 81 -38 179 -124 203
-50 14 -39 15 -230 -19z"/>
<path d="M3001 4794 c-24 -31 -26 -43 -9 -79 21 -45 99 -46 120 0 34 76 -60
143 -111 79z"/>
<path d="M3800 4748 c-539 -161 -1167 -435 -1632 -712 -81 -48 -151 -85 -157
-82 -9 6 70 291 123 445 44 128 29 208 -47 244 -83 40 -131 17 -262 -123 -280
-301 -569 -693 -915 -1240 -179 -284 -263 -401 -450 -624 -157 -187 -231 -293
-290 -412 -55 -113 -110 -268 -135 -390 -23 -109 -30 -305 -15 -454 11 -121
62 -347 94 -422 21 -49 61 -80 95 -72 59 14 64 52 21 179 -110 326 -101 687
26 1002 62 154 136 265 331 495 166 197 297 381 478 673 276 444 608 889 884
1185 l70 75 -35 -105 c-59 -177 -124 -418 -124 -459 0 -77 70 -145 149 -145
44 0 66 10 198 86 517 298 929 484 1458 659 240 79 275 97 275 139 0 9 -11 29
-25 44 -26 28 -55 32 -115 14z"/>
<path d="M2408 4503 c-23 -28 -28 -51 -17 -80 13 -34 26 -43 65 -43 40 0 64
27 64 73 0 26 -6 40 -22 51 -30 21 -71 20 -90 -1z"/>
<path d="M4496 3998 c-36 -51 -5 -118 53 -118 34 0 71 39 71 76 0 58 -92 89
-124 42z"/>
<path d="M4288 2814 c-75 -40 -22 -154 57 -124 29 11 48 51 39 85 -11 44 -54
62 -96 39z"/>
<path d="M1481 2719 c-83 -14 -185 -53 -262 -99 -64 -38 -218 -170 -377 -324
-59 -57 -192 -245 -256 -361 -63 -114 -96 -242 -96 -371 0 -190 55 -331 215
-554 125 -173 134 -184 208 -248 75 -65 164 -116 260 -149 60 -21 96 -26 212
-30 255 -9 365 28 657 219 87 57 210 137 274 178 227 146 330 271 396 480 19
64 23 95 23 210 -1 143 -11 195 -62 310 -42 97 -92 125 -140 80 -35 -32 -37
-55 -8 -118 49 -104 59 -150 59 -272 1 -128 -10 -175 -72 -294 -60 -115 -126
-171 -442 -375 -313 -202 -349 -223 -436 -247 -81 -22 -286 -30 -355 -14 -94
22 -209 82 -277 145 -77 71 -261 323 -307 420 -41 87 -55 152 -55 258 0 145
31 231 154 424 82 131 127 181 311 348 145 132 214 178 315 209 152 48 294 41
431 -22 97 -44 295 -180 403 -276 75 -67 104 -86 126 -86 40 0 70 32 70 73 0
27 -10 43 -57 88 -88 85 -157 139 -290 228 -194 130 -295 168 -468 176 -55 2
-124 0 -154 -6z"/>
<path d="M1923 2150 c-25 -10 -43 -39 -43 -71 0 -31 90 -119 122 -119 36 0 68
35 68 75 0 38 -36 87 -81 110 -32 17 -35 17 -66 5z"/>
<path d="M1552 1769 c-206 -102 -132 -412 99 -411 108 1 190 70 214 180 35
163 -159 307 -313 231z"/>
<path d="M1097 1329 c-25 -15 -38 -54 -27 -83 16 -42 80 -96 114 -96 37 0 49
7 65 37 19 37 12 57 -37 106 -49 48 -78 57 -115 36z"/>
</g>
</svg>
